<?xml version="1.0" encoding="utf-8"?>
<svg version="1.1" xmlns:xlink="http://www.w3.org/1999/xlink" width="171px" height="171px" xmlns="http://www.w3.org/2000/svg">
  <g transform="matrix(1 0 0 1 -130 -240 )">
    <path d="M 141.275390625 109.024983776768  C 144.466796875 101.516223231668  146.0625 93.6560674886437  146.0625 85.4445165476963  C 146.0625 73.5340687865023  142.833984375 62.6223231667748  136.376953125 52.709279688514  L 52.435546875 136.267358857884  C 62.603515625 142.851395197923  73.625 146.143413367943  85.5 146.143413367943  C 93.73828125 146.143413367943  101.5869140625 144.534393251136  109.0458984375 141.316353017521  C 116.5048828125 138.098312783907  122.943359375 133.789097988319  128.361328125 128.388708630759  C 133.779296875 122.988319273199  138.083984375 116.533744321869  141.275390625 109.024983776768  Z M 24.9375 85.4445165476963  C 24.9375 97.4289422452953  28.240234375 108.488643737833  34.845703125 118.623621025308  L 118.8984375 34.9545749513303  C 108.87890625 28.2225827384815  97.74609375 24.8565866320571  85.5 24.8565866320571  C 74.515625 24.8565866320571  64.384765625 27.5567813108371  55.107421875 32.9571706683971  C 45.830078125 38.3575600259571  38.482421875 45.7183646982479  33.064453125 55.0395846852693  C 27.646484375 64.3608046722907  24.9375 74.4957819597664  24.9375 85.4445165476963  Z M 164.208984375 52.2099286177807  C 168.736328125 62.7517845554835  171 73.829980532122  171 85.4445165476963  C 171 97.0590525632706  168.736328125 108.15574302401  164.208984375 118.734587929916  C 159.681640625 129.313432835821  153.6142578125 138.412719013628  146.0068359375 146.032446463336  C 138.3994140625 153.652173913043  129.3076171875 159.718364698248  118.7314453125 164.231018818949  C 108.1552734375 168.74367293965  97.078125 171  85.5 171  C 73.921875 171  62.8447265625 168.74367293965  52.2685546875 164.231018818949  C 41.6923828125 159.718364698248  32.6005859375 153.652173913043  24.9931640625 146.032446463336  C 17.3857421875 138.412719013628  11.318359375 129.313432835821  6.791015625 118.734587929916  C 2.263671875 108.15574302401  0 97.0590525632706  0 85.4445165476963  C 0 73.829980532122  2.263671875 62.7517845554835  6.791015625 52.2099286177807  C 11.318359375 41.6680726800779  17.3857421875 32.5872809863725  24.9931640625 24.9675535366645  C 32.6005859375 17.3478260869565  41.6923828125 11.2816353017521  52.2685546875 6.76898118105127  C 62.8447265625 2.25632706035041  73.921875 0  85.5 0  C 97.078125 0  108.1552734375 2.25632706035041  118.7314453125 6.76898118105127  C 129.3076171875 11.2816353017521  138.3994140625 17.3478260869565  146.0068359375 24.9675535366645  C 153.6142578125 32.5872809863725  159.681640625 41.6680726800779  164.208984375 52.2099286177807  Z " fill-rule="nonzero" fill="#000000" stroke="none" transform="matrix(1 0 0 1 130 240 )" />
  </g>
</svg>