<?xml version="1.0" encoding="utf-8"?>
<svg version="1.1" xmlns:xlink="http://www.w3.org/1999/xlink" width="30px" height="30px" xmlns="http://www.w3.org/2000/svg">
  <g transform="matrix(1 0 0 1 -238 -593 )">
    <path d="M 18.1189903846154 14.62890625  C 18.3473557692308 14.3815104166667  18.4615384615385 14.0885416666667  18.4615384615385 13.75  C 18.4615384615385 13.4114583333333  18.3473557692308 13.1184895833333  18.1189903846154 12.87109375  C 17.890625 12.6236979166667  17.6201923076923 12.5  17.3076923076923 12.5  L 12.6923076923077 12.5  C 12.3798076923077 12.5  12.109375 12.6236979166667  11.8810096153846 12.87109375  C 11.6526442307692 13.1184895833333  11.5384615384615 13.4114583333333  11.5384615384615 13.75  C 11.5384615384615 14.0885416666667  11.6526442307692 14.3815104166667  11.8810096153846 14.62890625  C 12.109375 14.8763020833333  12.3798076923077 15  12.6923076923077 15  L 17.3076923076923 15  C 17.6201923076923 15  17.890625 14.8763020833333  18.1189903846154 14.62890625  Z M 28.5036057692308 9.12109375  C 28.7319711538462 9.36848958333333  28.8461538461538 9.66145833333333  28.8461538461538 10  L 28.8461538461538 28.75  C 28.8461538461538 29.0885416666667  28.7319711538462 29.3815104166667  28.5036057692308 29.62890625  C 28.2752403846154 29.8763020833333  28.0048076923077 30  27.6923076923077 30  L 2.30769230769231 30  C 1.99519230769231 30  1.72475961538462 29.8763020833333  1.49639423076923 29.62890625  C 1.26802884615385 29.3815104166667  1.15384615384615 29.0885416666667  1.15384615384615 28.75  L 1.15384615384615 10  C 1.15384615384615 9.66145833333333  1.26802884615385 9.36848958333333  1.49639423076923 9.12109375  C 1.72475961538462 8.87369791666666  1.99519230769231 8.75  2.30769230769231 9  L 27.6923076923077 9  C 28.0048076923077 8.75  28.2752403846154 8.87369791666666  28.5036057692308 9.12109375  Z M 29.6574519230769 0.371093749999999  C 29.8858173076923 0.618489583333329  30 0.911458333333329  30 1.25  L 30 6.25  C 30 6.58854166666666  29.8858173076923 6.88151041666666  29.6574519230769 7.12890625  C 29.4290865384615 7.37630208333333  29.1586538461539 7.5  28.8461538461538 8  L 1.15384615384615 8  C 0.841346153846154 7.5  0.570913461538462 7.37630208333333  0.342548076923077 7.12890625  C 0.114182692307692 6.88151041666666  0 6.58854166666666  0 6.25  L 0 1.25  C 0 0.911458333333329  0.114182692307692 0.618489583333329  0.342548076923077 0.371093749999999  C 0.570913461538462 0.123697916666665  0.841346153846154 0  1.15384615384615 0  L 28.8461538461538 0  C 29.1586538461539 0  29.4290865384615 0.123697916666665  29.6574519230769 0.371093749999999  Z " fill-rule="nonzero" fill="#000000" stroke="none" transform="matrix(1 0 0 1 238 593 )" />
  </g>
</svg>