<?xml version="1.0" encoding="utf-8"?>
<svg version="1.1" xmlns:xlink="http://www.w3.org/1999/xlink" width="30px" height="30px" xmlns="http://www.w3.org/2000/svg">
  <g transform="matrix(1 0 0 1 -23 -593 )">
    <path d="M 28.5770089285714 23.3370535714286  C 29.0234375 23.4933035714286  29.4977678571429 23.5714285714286  30 23.5714285714286  L 30 30  L 0 30  L 0 23.5714285714286  C 0.502232142857143 23.5714285714286  0.9765625 23.4933035714286  1.42299107142857 23.3370535714286  C 1.86941964285714 23.1808035714286  2.19866071428571 23.02734375  2.41071428571429 22.8766741071429  C 2.62276785714286 22.7260044642857  2.88504464285714 22.5167410714286  3.19754464285714 22.2488839285714  C 3.53236607142857 21.9475446428571  3.81975446428571 21.7354910714286  4.05970982142857 21.6127232142857  C 4.29966517857143 21.4899553571429  4.61495535714286 21.4285714285714  5.00558035714286 21.4285714285714  C 5.2734375 21.4285714285714  5.51897321428571 21.4676339285714  5.7421875 21.5457589285714  C 5.96540178571429 21.6238839285714  6.13839285714286 21.7075892857143  6.26116071428571 21.796875  C 6.38392857142857 21.8861607142857  6.56808035714286 22.0368303571429  6.81361607142857 22.2488839285714  C 7.13727678571429 22.5279017857143  7.39955357142857 22.7399553571429  7.60044642857143 22.8850446428571  C 7.80133928571429 23.0301339285714  8.125 23.1808035714286  8.57142857142857 23.3370535714286  C 9.01785714285714 23.4933035714286  9.49776785714286 23.5714285714286  10.0111607142857 23.5714285714286  C 10.5133928571429 23.5714285714286  10.9877232142857 23.4905133928571  11.4341517857143 23.3286830357143  C 11.8805803571429 23.1668526785714  12.2042410714286 23.0161830357143  12.4051339285714 22.8766741071429  C 12.6060267857143 22.7371651785714  12.8738839285714 22.5279017857143  13.2087053571429 22.2488839285714  C 13.4430803571429 22.0368303571429  13.6244419642857 21.8861607142857  13.7527901785714 21.796875  C 13.8811383928571 21.7075892857143  14.0541294642857 21.6238839285714  14.2717633928571 21.5457589285714  C 14.4893973214286 21.4676339285714  14.7321428571429 21.4285714285714  15 21.4285714285714  C 15.390625 21.4285714285714  15.7059151785714 21.4899553571429  15.9458705357143 21.6127232142857  C 16.1858258928571 21.7354910714286  16.4732142857143 21.9475446428571  16.8080357142857 22.2488839285714  C 17.1205357142857 22.5167410714286  17.3828125 22.7260044642857  17.5948660714286 22.8766741071429  C 17.8069196428571 23.02734375  18.1361607142857 23.1808035714286  18.5825892857143 23.3370535714286  C 19.0290178571429 23.4933035714286  19.5033482142857 23.5714285714286  20.0055803571429 23.5714285714286  C 20.5078125 23.5714285714286  20.9821428571429 23.4933035714286  21.4285714285714 23.3370535714286  C 21.875 23.1808035714286  22.2042410714286 23.02734375  22.4162946428571 22.8766741071429  C 22.6283482142857 22.7260044642857  22.890625 22.5167410714286  23.203125 22.2488839285714  C 23.5379464285714 21.9475446428571  23.8253348214286 21.7354910714286  24.0652901785714 21.6127232142857  C 24.3052455357143 21.4899553571429  24.6205357142857 21.4285714285714  25.0111607142857 21.4285714285714  C 25.390625 21.4285714285714  25.7003348214286 21.4899553571429  25.9402901785714 21.6127232142857  C 26.1802455357143 21.7354910714286  26.4676339285714 21.9475446428571  26.8024553571429 22.2488839285714  C 27.1149553571429 22.5167410714286  27.3772321428571 22.7260044642857  27.5892857142857 22.8766741071429  C 27.8013392857143 23.02734375  28.1305803571429 23.1808035714286  28.5770089285714 23.3370535714286  Z M 29.0625 15.9375  C 29.6875 16.5625  30 17.3214285714286  30 18.2142857142857  L 30 21.4285714285714  C 29.7321428571429 21.4285714285714  29.4866071428571 21.3895089285714  29.2633928571429 21.3113839285714  C 29.0401785714286 21.2332589285714  28.8671875 21.1495535714286  28.7444196428571 21.0602678571429  C 28.6216517857143 20.9709821428571  28.4375 20.8203125  28.1919642857143 20.6082589285714  C 27.8683035714286 20.3292410714286  27.6060267857143 20.1171875  27.4051339285714 19.9720982142857  C 27.2042410714286 19.8270089285714  26.8805803571429 19.6763392857143  26.4341517857143 19.5200892857143  C 25.9877232142857 19.3638392857143  25.5133928571429 19.2857142857143  25.0111607142857 19.2857142857143  C 24.4977678571429 19.2857142857143  24.0178571428571 19.3638392857143  23.5714285714286 19.5200892857143  C 23.125 19.6763392857143  22.8013392857143 19.8270089285714  22.6004464285714 19.9720982142857  C 22.3995535714286 20.1171875  22.1372767857143 20.3292410714286  21.8136160714286 20.6082589285714  C 21.5680803571429 20.8203125  21.3839285714286 20.9709821428571  21.2611607142857 21.0602678571429  C 21.1383928571429 21.1495535714286  20.9654017857143 21.2332589285714  20.7421875 21.3113839285714  C 20.5189732142857 21.3895089285714  20.2734375 21.4285714285714  20.0055803571429 21.4285714285714  C 19.6149553571429 21.4285714285714  19.2996651785714 21.3671875  19.0597098214286 21.2444196428571  C 18.8197544642857 21.1216517857143  18.5323660714286 20.9095982142857  18.1975446428571 20.6082589285714  C 17.8738839285714 20.3292410714286  17.6116071428571 20.1171875  17.4107142857143 19.9720982142857  C 17.2098214285714 19.8270089285714  16.8861607142857 19.6763392857143  16.4397321428571 19.5200892857143  C 15.9933035714286 19.3638392857143  15.5133928571429 19.2857142857143  15 19.2857142857143  C 14.4977678571429 19.2857142857143  14.0234375 19.3666294642857  13.5770089285714 19.5284598214286  C 13.1305803571429 19.6902901785714  12.8069196428571 19.8409598214286  12.6060267857143 19.98046875  C 12.4051339285714 20.1199776785714  12.1372767857143 20.3292410714286  11.8024553571429 20.6082589285714  C 11.5680803571429 20.8203125  11.38671875 20.9709821428571  11.2583705357143 21.0602678571429  C 11.1300223214286 21.1495535714286  10.95703125 21.2332589285714  10.7393973214286 21.3113839285714  C 10.5217633928571 21.3895089285714  10.2790178571429 21.4285714285714  10.0111607142857 21.4285714285714  C 9.62053571428572 21.4285714285714  9.30524553571429 21.3671875  9.06529017857143 21.2444196428571  C 8.82533482142857 21.1216517857143  8.53794642857143 20.9095982142857  8.203125 20.6082589285714  C 7.890625 20.3404017857143  7.62834821428572 20.1311383928571  7.41629464285714 19.98046875  C 7.20424107142857 19.8297991071429  6.875 19.6763392857143  6.42857142857143 19.5200892857143  C 5.98214285714286 19.3638392857143  5.5078125 19.2857142857143  5.00558035714286 19.2857142857143  C 4.4921875 19.2857142857143  4.01227678571429 19.3638392857143  3.56584821428571 19.5200892857143  C 3.11941964285714 19.6763392857143  2.79575892857143 19.8270089285714  2.59486607142857 19.9720982142857  C 2.39397321428571 20.1171875  2.13169642857143 20.3292410714286  1.80803571428571 20.6082589285714  C 1.47321428571429 20.9095982142857  1.18582589285714 21.1216517857143  0.945870535714286 21.2444196428571  C 0.705915178571429 21.3671875  0.390625 21.4285714285714  0 21.4285714285714  L 0 18.2142857142857  C 0 17.3214285714286  0.3125 16.5625  0.9375 15.9375  C 1.5625 15.3125  2.32142857142857 15  3.21428571428571 15  L 4.28571428571429 15  L 4.28571428571429 7.5  L 8.57142857142857 7.5  L 8.57142857142857 15  L 12.8571428571429 15  L 12.8571428571429 7.5  L 17.1428571428571 7.5  L 17.1428571428571 15  L 21.4285714285714 15  L 21.4285714285714 7.5  L 25.7142857142857 7.5  L 25.7142857142857 15  L 26.7857142857143 15  C 27.6785714285714 15  28.4375 15.3125  29.0625 15.9375  Z M 7.81808035714286 1.23883928571429  C 8.3203125 2.06473214285714  8.57142857142857 2.90178571428571  8.57142857142857 3.75  C 8.57142857142857 4.609375  8.37053571428572 5.27064732142857  7.96875 5.73381696428571  C 7.56696428571429 6.19698660714285  7.05357142857143 6.42857142857143  6.42857142857143 6.42857142857143  C 5.83705357142857 6.42857142857143  5.33203125 6.21930803571429  4.91350446428571 5.80078125  C 4.49497767857143 5.38225446428571  4.28571428571429 4.87723214285714  4.28571428571429 4.28571428571429  C 4.28571428571429 3.96205357142857  4.33872767857143 3.67745535714285  4.44475446428571 3.43191964285714  C 4.55078125 3.18638392857143  4.68191964285714 2.99665178571429  4.83816964285714 2.86272321428571  C 4.99441964285714 2.72879464285714  5.16741071428571 2.57254464285714  5.35714285714286 2.39397321428571  C 5.546875 2.21540178571428  5.71986607142857 2.03962053571428  5.87611607142857 1.86662946428571  C 6.03236607142857 1.69363839285714  6.16350446428571 1.4453125  6.26953125 1.12165178571429  C 6.37555803571429 0.79799107142857  6.42857142857143 0.424107142857143  6.42857142857143 0  C 6.85267857142857 0  7.31584821428571 0.412946428571431  7.81808035714286 1.23883928571429  Z M 16.3895089285714 1.23883928571429  C 16.8917410714286 2.06473214285714  17.1428571428571 2.90178571428571  17.1428571428571 3.75  C 17.1428571428571 4.609375  16.9419642857143 5.27064732142857  16.5401785714286 5.73381696428571  C 16.1383928571429 6.19698660714285  15.625 6.42857142857143  15 6.42857142857143  C 14.4084821428571 6.42857142857143  13.9034598214286 6.21930803571429  13.4849330357143 5.80078125  C 13.06640625 5.38225446428571  12.8571428571429 4.87723214285714  12.8571428571429 4.28571428571429  C 12.8571428571429 3.96205357142857  12.91015625 3.67745535714285  13.0161830357143 3.43191964285714  C 13.1222098214286 3.18638392857143  13.2533482142857 2.99665178571429  13.4095982142857 2.86272321428571  C 13.5658482142857 2.72879464285714  13.7388392857143 2.57254464285714  13.9285714285714 2.39397321428571  C 14.1183035714286 2.21540178571428  14.2912946428571 2.03962053571428  14.4475446428571 1.86662946428571  C 14.6037946428571 1.69363839285714  14.7349330357143 1.4453125  14.8409598214286 1.12165178571429  C 14.9469866071429 0.79799107142857  15 0.424107142857143  15 0  C 15.4241071428571 0  15.8872767857143 0.412946428571431  16.3895089285714 1.23883928571429  Z M 24.9609375 1.23883928571429  C 25.4631696428571 2.06473214285714  25.7142857142857 2.90178571428571  25.7142857142857 3.75  C 25.7142857142857 4.609375  25.5133928571429 5.27064732142857  25.1116071428571 5.73381696428571  C 24.7098214285714 6.19698660714285  24.1964285714286 6.42857142857143  23.5714285714286 6.42857142857143  C 22.9799107142857 6.42857142857143  22.4748883928571 6.21930803571429  22.0563616071429 5.80078125  C 21.6378348214286 5.38225446428571  21.4285714285714 4.87723214285714  21.4285714285714 4.28571428571429  C 21.4285714285714 3.96205357142857  21.4815848214286 3.67745535714285  21.5876116071429 3.43191964285714  C 21.6936383928571 3.18638392857143  21.8247767857143 2.99665178571429  21.9810267857143 2.86272321428571  C 22.1372767857143 2.72879464285714  22.3102678571429 2.57254464285714  22.5 2.39397321428571  C 22.6897321428571 2.21540178571428  22.8627232142857 2.03962053571428  23.0189732142857 1.86662946428571  C 23.1752232142857 1.69363839285714  23.3063616071429 1.4453125  23.4123883928571 1.12165178571429  C 23.5184151785714 0.79799107142857  23.5714285714286 0.424107142857143  23.5714285714286 0  C 23.9955357142857 0  24.4587053571429 0.412946428571431  24.9609375 1.23883928571429  Z " fill-rule="nonzero" fill="#000000" stroke="none" transform="matrix(1 0 0 1 23 593 )" />
  </g>
</svg>