<?xml version="1.0" encoding="utf-8"?>
<svg version="1.1" xmlns:xlink="http://www.w3.org/1999/xlink" width="30px" height="30px" xmlns="http://www.w3.org/2000/svg">
  <g transform="matrix(1 0 0 1 -127 -593 )">
    <path d="M 2.30769230769231 23.0357142857143  L 2.30769230769231 27.8571428571429  L 7.5 27.8571428571429  L 7.5 23.0357142857143  L 2.30769230769231 23.0357142857143  Z M 8.65384615384615 23.0357142857143  L 8.65384615384615 27.8571428571429  L 14.4230769230769 27.8571428571429  L 14.4230769230769 23.0357142857143  L 8.65384615384615 23.0357142857143  Z M 2.30769230769231 16.6071428571429  L 2.30769230769231 21.9642857142857  L 7.5 21.9642857142857  L 7.5 16.6071428571429  L 2.30769230769231 16.6071428571429  Z M 8.65384615384615 16.6071428571429  L 8.65384615384615 21.9642857142857  L 14.4230769230769 21.9642857142857  L 14.4230769230769 16.6071428571429  L 8.65384615384615 16.6071428571429  Z M 2.30769230769231 10.7142857142857  L 2.30769230769231 15.5357142857143  L 7.5 15.5357142857143  L 7.5 10.7142857142857  L 2.30769230769231 10.7142857142857  Z M 15.5769230769231 23.0357142857143  L 15.5769230769231 27.8571428571429  L 21.3461538461538 27.8571428571429  L 21.3461538461538 23.0357142857143  L 15.5769230769231 23.0357142857143  Z M 8.65384615384615 10.7142857142857  L 8.65384615384615 15.5357142857143  L 14.4230769230769 15.5357142857143  L 14.4230769230769 10.7142857142857  L 8.65384615384615 10.7142857142857  Z M 22.5 23.0357142857143  L 22.5 27.8571428571429  L 27.6923076923077 27.8571428571429  L 27.6923076923077 23.0357142857143  L 22.5 23.0357142857143  Z M 15.5769230769231 16.6071428571429  L 15.5769230769231 21.9642857142857  L 21.3461538461538 21.9642857142857  L 21.3461538461538 16.6071428571429  L 15.5769230769231 16.6071428571429  Z M 9.05949519230769 7.87667410714286  C 9.17367788461539 7.77064732142857  9.23076923076923 7.64508928571428  9.23076923076923 7.5  L 9.23076923076923 2.67857142857143  C 9.23076923076923 2.53348214285714  9.17367788461539 2.40792410714286  9.05949519230769 2.30189732142857  C 8.9453125 2.19587053571428  8.81009615384615 2.14285714285714  8.65384615384615 2.14285714285714  L 7.5 2.14285714285714  C 7.34375 2.14285714285714  7.20853365384615 2.19587053571428  7.09435096153846 2.30189732142857  C 6.98016826923077 2.40792410714286  6.92307692307692 2.53348214285714  6.92307692307692 2.67857142857143  L 6.92307692307692 7.5  C 6.92307692307692 7.64508928571428  6.98016826923077 7.77064732142857  7.09435096153846 7.87667410714286  C 7.20853365384615 7.98270089285714  7.34375 8.03571428571429  7.5 8.03571428571429  L 8.65384615384615 8.03571428571429  C 8.81009615384615 8.03571428571429  8.9453125 7.98270089285714  9.05949519230769 7.87667410714286  Z M 22.5 16.6071428571429  L 22.5 21.9642857142857  L 27.6923076923077 21.9642857142857  L 27.6923076923077 16.6071428571429  L 22.5 16.6071428571429  Z M 15.5769230769231 10.7142857142857  L 15.5769230769231 15.5357142857143  L 21.3461538461538 15.5357142857143  L 21.3461538461538 10.7142857142857  L 15.5769230769231 10.7142857142857  Z M 22.5 10.7142857142857  L 22.5 15.5357142857143  L 27.6923076923077 15.5357142857143  L 27.6923076923077 10.7142857142857  L 22.5 10.7142857142857  Z M 22.9056490384615 7.87667410714286  C 23.0198317307692 7.77064732142857  23.0769230769231 7.64508928571428  23.0769230769231 7.5  L 23.0769230769231 2.67857142857143  C 23.0769230769231 2.53348214285714  23.0198317307692 2.40792410714286  22.9056490384615 2.30189732142857  C 22.7914663461538 2.19587053571428  22.65625 2.14285714285714  22.5 2.14285714285714  L 21.3461538461538 2.14285714285714  C 21.1899038461539 2.14285714285714  21.0546875 2.19587053571428  20.9405048076923 2.30189732142857  C 20.8263221153846 2.40792410714286  20.7692307692308 2.53348214285714  20.7692307692308 2.67857142857143  L 20.7692307692308 7.5  C 20.7692307692308 7.64508928571428  20.8263221153846 7.77064732142857  20.9405048076923 7.87667410714286  C 21.0546875 7.98270089285714  21.1899038461539 8.03571428571429  21.3461538461538 8.03571428571429  L 22.5 8.03571428571429  C 22.65625 8.03571428571429  22.7914663461538 7.98270089285714  22.9056490384615 7.87667410714286  Z M 29.3149038461538 4.921875  C 29.7716346153846 5.34598214285714  30 5.84821428571428  30 6.42857142857143  L 30 27.8571428571429  C 30 28.4375  29.7716346153846 28.9397321428571  29.3149038461538 29.3638392857143  C 28.8581730769231 29.7879464285714  28.3173076923077 30  27.6923076923077 30  L 2.30769230769231 30  C 1.68269230769231 30  1.14182692307692 29.7879464285714  0.685096153846154 29.3638392857143  C 0.228365384615385 28.9397321428571  0 28.4375  0 27.8571428571429  L 0 6.42857142857143  C 0 5.84821428571428  0.228365384615385 5.34598214285714  0.685096153846154 4.921875  C 1.14182692307692 4.49776785714285  1.68269230769231 4.28571428571429  2.30769230769231 4.28571428571429  L 4.61538461538462 4.28571428571429  L 4.61538461538462 2.67857142857143  C 4.61538461538462 1.94196428571429  4.89783653846154 1.31138392857143  5.46274038461538 0.786830357142858  C 6.02764423076923 0.262276785714286  6.70673076923077 0  7.5 0  L 8.65384615384615 0  C 9.44711538461539 0  10.1262019230769 0.262276785714286  10.6911057692308 0.786830357142858  C 11.2560096153846 1.31138392857143  11.5384615384615 1.94196428571429  11.5384615384615 2.67857142857143  L 11.5384615384615 4.28571428571429  L 18.4615384615385 4.28571428571429  L 18.4615384615385 2.67857142857143  C 18.4615384615385 1.94196428571429  18.7439903846154 1.31138392857143  19.3088942307692 0.786830357142858  C 19.8737980769231 0.262276785714286  20.5528846153846 0  21.3461538461538 0  L 22.5 0  C 23.2932692307692 0  23.9723557692308 0.262276785714286  24.5372596153846 0.786830357142858  C 25.1021634615385 1.31138392857143  25.3846153846154 1.94196428571429  25.3846153846154 2.67857142857143  L 25.3846153846154 4.28571428571429  L 27.6923076923077 4.28571428571429  C 28.3173076923077 4.28571428571429  28.8581730769231 4.49776785714285  29.3149038461538 4.921875  Z " fill-rule="nonzero" fill="#000000" stroke="none" transform="matrix(1 0 0 1 127 593 )" />
  </g>
</svg>