<?xml version="1.0" encoding="utf-8"?>
<svg version="1.1" xmlns:xlink="http://www.w3.org/1999/xlink" width="300px" height="333px" xmlns="http://www.w3.org/2000/svg">
  <defs>
    <linearGradient gradientUnits="userSpaceOnUse" x1="675" y1="10.370000000008" x2="675" y2="631.970000000008" id="LinearGradient100">
      <stop id="Stop101" stop-color="#69fdf4" offset="0" />
      <stop id="Stop102" stop-color="#7ed2f7" stop-opacity="0.996078431372549" offset="1" />
    </linearGradient>
  </defs>
  <g transform="matrix(1 0 0 1 -525 -158 )">
    <path d="M 529.5 163  A 0.5 0.5 0 0 1 530 162.5 L 820 162.5  A 0.5 0.5 0 0 1 820.5 163 L 820.5 486  A 0.5 0.5 0 0 1 820 486.5 L 530 486.5  A 0.5 0.5 0 0 1 529.5 486 L 529.5 163  Z " fill-rule="nonzero" fill="#ffffff" stroke="none" />
    <path d="M 527.5 163  A 2.5 2.5 0 0 1 530 160.5 L 820 160.5  A 2.5 2.5 0 0 1 822.5 163 L 822.5 486  A 2.5 2.5 0 0 1 820 488.5 L 530 488.5  A 2.5 2.5 0 0 1 527.5 486 L 527.5 163  Z " stroke-width="5" stroke="url(#LinearGradient100)" fill="none" />
  </g>
</svg>