<?xml version="1.0" encoding="utf-8"?>
<svg version="1.1" xmlns:xlink="http://www.w3.org/1999/xlink" width="33px" height="33px" xmlns="http://www.w3.org/2000/svg">
  <g transform="matrix(1 0 0 1 -774 -177 )">
    <path d="M 32.2222222222222 24.6666666666667  C 32.7407407407407 25.1851851851852  33 25.8148148148148  33 26.5555555555556  C 33 27.2962962962963  32.7407407407407 27.9259259259259  32.2222222222222 28.4444444444444  L 28.4444444444444 32.2222222222222  C 27.9259259259259 32.7407407407407  27.2962962962963 33  26.5555555555556 33  C 25.8148148148148 33  25.1851851851852 32.7407407407407  24.6666666666667 32.2222222222222  L 16.5 24.0555555555556  L 8.33333333333333 32.2222222222222  C 7.81481481481482 32.7407407407407  7.18518518518519 33  6.44444444444444 33  C 5.7037037037037 33  5.07407407407407 32.7407407407407  4.55555555555556 32.2222222222222  L 0.777777777777778 28.4444444444444  C 0.25925925925926 27.9259259259259  0 27.2962962962963  0 26.5555555555556  C 0 25.8148148148148  0.25925925925926 25.1851851851852  0.777777777777778 24.6666666666667  L 8.94444444444444 16.5  L 0.777777777777778 8.33333333333333  C 0.25925925925926 7.81481481481481  0 7.18518518518519  0 6.44444444444444  C 0 5.7037037037037  0.25925925925926 5.07407407407407  0.777777777777778 4.55555555555556  L 4.55555555555556 0.777777777777778  C 5.07407407407407 0.259259259259258  5.7037037037037 0  6.44444444444444 0  C 7.18518518518519 0  7.81481481481482 0.259259259259258  8.33333333333333 0.777777777777778  L 16.5 8.94444444444445  L 24.6666666666667 0.777777777777778  C 25.1851851851852 0.259259259259258  25.8148148148148 0  26.5555555555556 0  C 27.2962962962963 0  27.9259259259259 0.259259259259258  28.4444444444444 0.777777777777778  L 32.2222222222222 4.55555555555556  C 32.7407407407407 5.07407407407407  33 5.7037037037037  33 6.44444444444444  C 33 7.18518518518519  32.7407407407407 7.81481481481481  32.2222222222222 8.33333333333333  L 24.0555555555556 16.5  L 32.2222222222222 24.6666666666667  Z " fill-rule="nonzero" fill="#000000" stroke="none" transform="matrix(1 0 0 1 774 177 )" />
  </g>
</svg>