<?xml version="1.0" encoding="utf-8"?>
<svg version="1.1" xmlns:xlink="http://www.w3.org/1999/xlink" width="29px" height="29px" xmlns="http://www.w3.org/2000/svg">
  <g transform="matrix(1 0 0 1 -360 -95 )">
    <path d="M 6.75088715400994 22.2443181818182  C 7.51928081381595 23.0132575757576  7.90347764371895 23.9469696969697  7.90347764371895 25.0454545454545  C 7.90347764371895 26.1439393939394  7.51928081381595 27.0776515151515  6.75088715400994 27.8465909090909  C 5.98249349420393 28.6155303030303  5.04944405015377 29  3.95173882185947 29  C 2.85403359356518 29  1.92098414951502 28.6155303030303  1.15259048970901 27.8465909090909  C 0.384196829903004 27.0776515151515  0 26.1439393939394  0 25.0454545454545  C 0 23.9469696969697  0.384196829903004 23.0132575757576  1.15259048970901 22.2443181818182  C 1.92098414951502 21.4753787878788  2.85403359356518 21.0909090909091  3.95173882185947 21.0909090909091  C 5.04944405015377 21.0909090909091  5.98249349420393 21.4753787878788  6.75088715400994 22.2443181818182  Z M 16.7845990063875 21.2762784090909  C 17.7107877927608 23.2810132575758  18.2630707357464 25.381865530303  18.4414478353442 27.5788352272727  C 18.4688904660516 27.9633049242424  18.3522592855453 28.2928503787879  18.0915542938254 28.5674715909091  C 17.8445706174592 28.8558238636364  17.5221197066477 29  17.1242015613911 29  L 14.3456352022711 29  C 14.0026023184291 29  13.7075940383251 28.88671875  13.4606103619588 28.66015625  C 13.2136266855926 28.43359375  13.0764135320558 28.1486742424242  13.0489709013485 27.8053977272727  C 12.7471019635675 24.6609848484848  11.4813106221907 21.9731297348485  9.25159687721789 19.7418323863636  C 7.02188313224509 17.5105350378788  4.33593565176248 16.2438446969697  1.19375443577005 15.9417613636364  C 0.850721551928081 15.9142992424242  0.566004258339248 15.7769886363636  0.339602555003549 15.5298295454545  C 0.11320085166785 15.2826704545455  0 14.9874526515152  0 14.6441761363636  L 0 11.8636363636364  C 0 11.4654356060606  0.144073811213627 11.1427556818182  0.43222143364088 10.8955965909091  C 0.665483794653419 10.6621685606061  0.960492074757511 10.5454545454545  1.31724627395316 10.5454545454545  L 1.42015613910575 10.5454545454545  C 3.61556659569435 10.7239583333333  5.71492784480719 11.2766335227273  7.71823988644429 12.2034801136364  C 9.72155192808138 13.1303267045455  11.4984622663828 14.3764204545455  13.0489709013485 15.9417613636364  C 14.6132008516678 17.4933712121212  15.8584102200142 19.2715435606061  16.7845990063875 21.2762784090909  Z M 26.5095812633073 17.2908380681818  C 27.9777620061509 20.5794270833333  28.8010409273717 24.022490530303  28.9794180269695 27.6200284090909  C 29.0068606576768 27.9907670454545  28.8833688194937 28.313446969697  28.6089425124202 28.5880681818182  C 28.3619588360539 28.8626893939394  28.0463685829193 29  27.6621717530163 29  L 24.7189496096522 29  C 24.3621954104566 29  24.0568961438372 28.879853219697  23.8030518097942 28.6395596590909  C 23.5492074757511 28.3992660984848  23.4154246510528 28.1074810606061  23.4017033356991 27.7642045454545  C 23.2370475514549 24.8120265151515  22.5441211260942 22.0074573863636  21.3229240596167 19.3504971590909  C 20.1017269931393 16.6935369318182  18.513484740951 14.38671875  16.5581973030518 12.4300426136364  C 14.6029098651526 10.4733664772727  12.2977288857346 8.88399621212121  9.64265436479773 7.66193181818182  C 6.98757984386089 6.43986742424242  4.18500118287201 5.73958333333333  1.23491838183109 5.56107954545455  C 0.891885497989118 5.54734848484848  0.600307546723445 5.41347064393939  0.360184528034067 5.15944602272727  C 0.120061509344689 4.90542140151515  0 4.60677083333333  0 4.26349431818182  L 0 1.31818181818182  C 0 0.933712121212119  0.137213153536787 0.617897727272729  0.411639460610362 0.370738636363637  C 0.658623136976579 0.123579545454546  0.960492074757511 0  1.31724627395316 0  L 1.37899219304471 0  C 4.97397681570854 0.178503787878783  8.41459664064348 1.00236742424242  11.7008516678495 2.47159090909091  C 14.9871066950556 3.94081439393939  17.9063165365507 5.9592803030303  20.458481192335 8.52698863636364  C 23.0243671634729 11.0809659090909  25.0414005204637 14.0022490530303  26.5095812633073 17.2908380681818  Z " fill-rule="nonzero" fill="#000000" stroke="none" transform="matrix(1 0 0 1 360 95 )" />
  </g>
</svg>