<?xml version="1.0" encoding="utf-8"?>
<svg version="1.1" xmlns:xlink="http://www.w3.org/1999/xlink" width="23px" height="24px" xmlns="http://www.w3.org/2000/svg">
  <g transform="matrix(1 0 0 1 -39 -50 )">
    <path d="M 13.6190476190476 21.4509018036072  C 13.7777777777778 21.6112224448898  13.8571428571429 21.7955911823647  13.8571428571429 22.0040080160321  C 13.8571428571429 22.2124248496994  13.7777777777778 22.3967935871743  13.6190476190476 22.5571142284569  L 12.4285714285714 23.7595190380762  C 12.2698412698413 23.9198396793587  12.0873015873016 24  11.8809523809524 24  C 11.6746031746032 24  11.4920634920635 23.9198396793587  11.3333333333333 23.7595190380762  L 0.238095238095238 12.5531062124248  C 0.0793650793650794 12.3927855711423  0 12.2084168336673  0 12  C 0 11.7915831663327  0.0793650793650794 11.6072144288577  0.238095238095238 11.4468937875752  L 11.3333333333333 0.240480961923848  C 11.4920634920635 0.0801603206412818  11.6746031746032 0  11.8809523809524 0  C 12.0873015873016 0  12.2698412698413 0.0801603206412818  12.4285714285714 0.240480961923848  L 13.6190476190476 1.44288577154308  C 13.7777777777778 1.60320641282565  13.8571428571429 1.7875751503006  13.8571428571429 1.99599198396794  C 13.8571428571429 2.20440881763527  13.7777777777778 2.38877755511022  13.6190476190476 2.54909819639279  L 4.26190476190476 12  L 13.6190476190476 21.4509018036072  Z M 22.7619047619048 21.4509018036072  C 22.9206349206349 21.6112224448898  23 21.7955911823647  23 22.0040080160321  C 23 22.2124248496994  22.9206349206349 22.3967935871743  22.7619047619048 22.5571142284569  L 21.5714285714286 23.7595190380762  C 21.4126984126984 23.9198396793587  21.2301587301587 24  21.0238095238095 24  C 20.8174603174603 24  20.6349206349206 23.9198396793587  20.4761904761905 23.7595190380762  L 9.38095238095238 12.5531062124248  C 9.22222222222222 12.3927855711423  9.14285714285714 12.2084168336673  9.14285714285714 12  C 9.14285714285714 11.7915831663327  9.22222222222222 11.6072144288577  9.38095238095238 11.4468937875752  L 20.4761904761905 0.240480961923848  C 20.6349206349206 0.0801603206412818  20.8174603174603 0  21.0238095238095 0  C 21.2301587301587 0  21.4126984126984 0.0801603206412818  21.5714285714286 0.240480961923848  L 22.7619047619048 1.44288577154308  C 22.9206349206349 1.60320641282565  23 1.7875751503006  23 1.99599198396794  C 23 2.20440881763527  22.9206349206349 2.38877755511022  22.7619047619048 2.54909819639279  L 13.4047619047619 12  L 22.7619047619048 21.4509018036072  Z " fill-rule="nonzero" fill="#000000" stroke="none" transform="matrix(1 0 0 1 39 50 )" />
  </g>
</svg>